<svg width="40" height="40" viewBox="0 0 40 40" fill="none" xmlns="http://www.w3.org/2000/svg">
<circle cx="20" cy="20" r="20" fill="#EBE9E0"/>
<g clip-path="url(#clip0_530_343)">
<path d="M27.9084 16.9678L28.2275 16.4149C28.3625 16.1812 28.6618 16.1002 28.8945 16.2345L32.2306 18.1607C32.4633 18.295 32.7626 18.214 32.8975 17.9803L33.2167 17.4274C33.3517 17.1937 33.2721 16.8939 33.0395 16.7596L15.7736 6.79117C15.541 6.65686 15.2417 6.73784 15.1067 6.97158L14.7875 7.52443C14.6526 7.75817 14.7321 8.0579 14.9647 8.1922L25.2658 14.1395C25.4984 14.2738 25.5779 14.5735 25.443 14.8073L25.1238 15.3601C24.9889 15.5939 25.0684 15.8936 25.301 16.0279L27.2442 17.1498C27.4768 17.2841 27.7762 17.2031 27.9111 16.9694L27.9084 16.9678Z" fill="#131313"/>
<path d="M27.9084 16.9678L28.2275 16.4149C28.3625 16.1812 28.6618 16.1002 28.8945 16.2345L32.2306 18.1607C32.4633 18.295 32.7626 18.214 32.8975 17.9803L33.2167 17.4274C33.3517 17.1937 33.2721 16.8939 33.0395 16.7596L15.7736 6.79117C15.541 6.65686 15.2417 6.73784 15.1067 6.97158L14.7875 7.52443C14.6526 7.75817 14.7321 8.0579 14.9647 8.1922L25.2658 14.1395C25.4984 14.2738 25.5779 14.5735 25.443 14.8073L25.1238 15.3601C24.9889 15.5939 25.0684 15.8936 25.301 16.0279L27.2442 17.1498C27.4768 17.2841 27.7762 17.2031 27.9111 16.9694L27.9084 16.9678Z" fill="black" fill-opacity="0.2"/>
<path d="M33.2339 20.6088L34.2048 21.1693C34.4374 21.3036 34.7368 21.2227 34.8717 20.9889L35.1909 20.4361C35.3259 20.2023 35.2463 19.9026 35.0137 19.7683L33.0705 18.6464C32.8379 18.5121 32.5385 18.5931 32.4036 18.8268L32.0844 19.3797C31.9494 19.6134 32.029 19.9131 32.2616 20.0474L33.2325 20.608L33.2339 20.6088Z" fill="#131313"/>
<path d="M33.2339 20.6088L34.2048 21.1693C34.4374 21.3036 34.7368 21.2227 34.8717 20.9889L35.1909 20.4361C35.3259 20.2023 35.2463 19.9026 35.0137 19.7683L33.0705 18.6464C32.8379 18.5121 32.5385 18.5931 32.4036 18.8268L32.0844 19.3797C31.9494 19.6134 32.029 19.9131 32.2616 20.0474L33.2325 20.608L33.2339 20.6088Z" fill="black" fill-opacity="0.2"/>
<path d="M33.434 24.456L33.9842 24.7736C34.2169 24.908 34.5162 24.827 34.6511 24.5932L35.7784 22.6407C35.9134 22.407 35.8338 22.1073 35.6012 21.973L35.051 21.6553C34.8184 21.521 34.519 21.602 34.3841 21.8357L33.2568 23.7882C33.1218 24.0219 33.2014 24.3217 33.434 24.456Z" fill="#131313"/>
<path d="M33.434 24.456L33.9842 24.7736C34.2169 24.908 34.5162 24.827 34.6511 24.5932L35.7784 22.6407C35.9134 22.407 35.8338 22.1073 35.6012 21.973L35.051 21.6553C34.8184 21.521 34.519 21.602 34.3841 21.8357L33.2568 23.7882C33.1218 24.0219 33.2014 24.3217 33.434 24.456Z" fill="black" fill-opacity="0.2"/>
<path d="M34.8264 25.2603C34.5937 25.126 34.2944 25.207 34.1594 25.4407L32.2241 28.7928C32.0891 29.0266 32.1687 29.3263 32.4013 29.4606L32.9515 29.7783C33.1842 29.9126 33.4835 29.8316 33.6185 29.5979L35.5538 26.2457C35.6888 26.012 35.6092 25.7123 35.3766 25.578L34.8264 25.2603Z" fill="#131313"/>
<path d="M34.8264 25.2603C34.5937 25.126 34.2944 25.207 34.1594 25.4407L32.2241 28.7928C32.0891 29.0266 32.1687 29.3263 32.4013 29.4606L32.9515 29.7783C33.1842 29.9126 33.4835 29.8316 33.6185 29.5979L35.5538 26.2457C35.6888 26.012 35.6092 25.7123 35.3766 25.578L34.8264 25.2603Z" fill="black" fill-opacity="0.2"/>
<path d="M24.0693 17.1831L24.6325 16.2075C24.7675 15.9738 24.6879 15.6741 24.4553 15.5398L9.97676 7.18057C9.74413 7.04627 9.44479 7.12724 9.30984 7.36098L8.99065 7.91384C8.8557 8.14758 8.93524 8.4473 9.16787 8.58161L22.2548 16.1374C22.4875 16.2717 22.567 16.5714 22.4321 16.8051L22.1129 17.358C21.9779 17.5917 22.0575 17.8915 22.2901 18.0258L22.8403 18.3434C23.0729 18.4778 23.3723 18.3968 23.5072 18.163L24.0705 17.1875L24.0693 17.1831Z" fill="#131313"/>
<path d="M24.0693 17.1831L24.6325 16.2075C24.7675 15.9738 24.6879 15.6741 24.4553 15.5398L9.97676 7.18057C9.74413 7.04627 9.44479 7.12724 9.30984 7.36098L8.99065 7.91384C8.8557 8.14758 8.93524 8.4473 9.16787 8.58161L22.2548 16.1374C22.4875 16.2717 22.567 16.5714 22.4321 16.8051L22.1129 17.358C21.9779 17.5917 22.0575 17.8915 22.2901 18.0258L22.8403 18.3434C23.0729 18.4778 23.3723 18.3968 23.5072 18.163L24.0705 17.1875L24.0693 17.1831Z" fill="black" fill-opacity="0.2"/>
<path d="M25.9407 30.0261L25.6215 30.579C25.4866 30.8127 25.5661 31.1125 25.7987 31.2468L27.7419 32.3687C27.9745 32.503 28.2739 32.422 28.4088 32.1883L28.728 31.6354C28.863 31.4017 28.7834 31.1019 28.5508 30.9676L26.6076 29.8457C26.375 29.7114 26.0756 29.7924 25.9407 30.0261Z" fill="#131313"/>
<path d="M25.9407 30.0261L25.6215 30.579C25.4866 30.8127 25.5661 31.1125 25.7987 31.2468L27.7419 32.3687C27.9745 32.503 28.2739 32.422 28.4088 32.1883L28.728 31.6354C28.863 31.4017 28.7834 31.1019 28.5508 30.9676L26.6076 29.8457C26.375 29.7114 26.0756 29.7924 25.9407 30.0261Z" fill="black" fill-opacity="0.2"/>
<path d="M22.5919 29.3932L21.621 28.8327C21.3884 28.6984 21.3089 28.3986 21.4438 28.1649L21.763 27.612C21.8979 27.3783 21.8184 27.0786 21.5858 26.9443L19.6426 25.8224C19.4099 25.6881 19.1106 25.769 18.9757 26.0028L18.6565 26.5556C18.5215 26.7894 18.2222 26.8703 17.9895 26.736L7.69131 20.7903C7.45868 20.656 7.15934 20.737 7.02439 20.9708L6.7052 21.5236C6.57025 21.7574 6.64979 22.0571 6.88242 22.1914L24.1483 32.1598C24.3809 32.2942 24.6803 32.2132 24.8152 31.9794L25.1344 31.4266C25.2694 31.1928 25.1898 30.8931 24.9572 30.7588L22.5933 29.394L22.5919 29.3932Z" fill="#131313"/>
<path d="M22.5919 29.3932L21.621 28.8327C21.3884 28.6984 21.3089 28.3986 21.4438 28.1649L21.763 27.612C21.8979 27.3783 21.8184 27.0786 21.5858 26.9443L19.6426 25.8224C19.4099 25.6881 19.1106 25.769 18.9757 26.0028L18.6565 26.5556C18.5215 26.7894 18.2222 26.8703 17.9895 26.736L7.69131 20.7903C7.45868 20.656 7.15934 20.737 7.02439 20.9708L6.7052 21.5236C6.57025 21.7574 6.64979 22.0571 6.88242 22.1914L24.1483 32.1598C24.3809 32.2942 24.6803 32.2132 24.8152 31.9794L25.1344 31.4266C25.2694 31.1928 25.1898 30.8931 24.9572 30.7588L22.5933 29.394L22.5919 29.3932Z" fill="black" fill-opacity="0.2"/>
<path d="M20.4143 22.5379L19.8641 22.2203C19.6314 22.086 19.3321 22.1669 19.1971 22.4007L18.878 22.9535C18.743 23.1873 18.4437 23.2682 18.211 23.1339L5.12685 15.5798C4.89423 15.4455 4.59488 15.5264 4.45993 15.7602L4.14074 16.313C4.00579 16.5468 4.08534 16.8465 4.31796 16.9808L18.7979 25.3408C19.0305 25.4751 19.3299 25.3941 19.4648 25.1604L20.5921 23.2079C20.727 22.9742 20.6475 22.6744 20.4149 22.5401L20.4143 22.5379Z" fill="#131313"/>
<path d="M20.4143 22.5379L19.8641 22.2203C19.6314 22.086 19.3321 22.1669 19.1971 22.4007L18.878 22.9535C18.743 23.1873 18.4437 23.2682 18.211 23.1339L5.12685 15.5798C4.89423 15.4455 4.59488 15.5264 4.45993 15.7602L4.14074 16.313C4.00579 16.5468 4.08534 16.8465 4.31796 16.9808L18.7979 25.3408C19.0305 25.4751 19.3299 25.3941 19.4648 25.1604L20.5921 23.2079C20.727 22.9742 20.6475 22.6744 20.4149 22.5401L20.4143 22.5379Z" fill="black" fill-opacity="0.2"/>
<path d="M21.0595 19.1781L21.6228 18.2025C21.7577 17.9688 21.6782 17.6691 21.4455 17.5348L6.96699 9.17557C6.73437 9.04126 6.43502 9.12224 6.30007 9.35597L5.98088 9.90883C5.84593 10.1426 5.92548 10.4423 6.1581 10.5766L19.2451 18.1324C19.4777 18.2667 19.5572 18.5664 19.4223 18.8001L19.1031 19.353C18.9682 19.5867 18.6688 19.6677 18.4362 19.5334L5.34921 11.9776C5.11659 11.8433 4.81725 11.9243 4.6823 12.158L4.3631 12.7109C4.22815 12.9446 4.3077 13.2444 4.54033 13.3787L19.0203 21.7387C19.2529 21.873 19.5522 21.792 19.6872 21.5583L21.0585 19.1831L21.0595 19.1781Z" fill="#131313"/>
<path d="M21.0595 19.1781L21.6228 18.2025C21.7577 17.9688 21.6782 17.6691 21.4455 17.5348L6.96699 9.17557C6.73437 9.04126 6.43502 9.12224 6.30007 9.35597L5.98088 9.90883C5.84593 10.1426 5.92548 10.4423 6.1581 10.5766L19.2451 18.1324C19.4777 18.2667 19.5572 18.5664 19.4223 18.8001L19.1031 19.353C18.9682 19.5867 18.6688 19.6677 18.4362 19.5334L5.34921 11.9776C5.11659 11.8433 4.81725 11.9243 4.6823 12.158L4.3631 12.7109C4.22815 12.9446 4.3077 13.2444 4.54033 13.3787L19.0203 21.7387C19.2529 21.873 19.5522 21.792 19.6872 21.5583L21.0585 19.1831L21.0595 19.1781Z" fill="black" fill-opacity="0.2"/>
<path d="M29.779 29.8109L29.2158 30.7865C29.0808 31.0202 29.1604 31.32 29.393 31.4543L29.9432 31.7719C30.1758 31.9062 30.4752 31.8253 30.6101 31.5915L31.7374 29.639C31.8724 29.4053 31.7928 29.1056 31.5602 28.9713L31.01 28.6536C30.7773 28.5193 30.478 28.6003 30.343 28.834L29.7798 29.8095L29.779 29.8109Z" fill="#131313"/>
<path d="M29.779 29.8109L29.2158 30.7865C29.0808 31.0202 29.1604 31.32 29.393 31.4543L29.9432 31.7719C30.1758 31.9062 30.4752 31.8253 30.6101 31.5915L31.7374 29.639C31.8724 29.4053 31.7928 29.1056 31.5602 28.9713L31.01 28.6536C30.7773 28.5193 30.478 28.6003 30.343 28.834L29.7798 29.8095L29.779 29.8109Z" fill="black" fill-opacity="0.2"/>
</g>
<defs>
<clipPath id="clip0_530_343">
<rect width="33.7778" height="17.7778" fill="white" transform="translate(9.77734 3.33337) rotate(30)"/>
</clipPath>
</defs>
</svg>
